<svg width="61" height="60" viewBox="0 0 61 60" fill="none" xmlns="http://www.w3.org/2000/svg">
<path d="M19.019 23.1797V31H17.6655V24.2754H15.27L15.1304 27.2993C15.0767 28.2446 14.9603 28.9787 14.7812 29.5015C14.6058 30.0207 14.3498 30.4002 14.0132 30.6401C13.6766 30.88 13.2254 31 12.6597 31H12.3159V29.915L12.5308 29.8989C12.8423 29.8703 13.0822 29.7611 13.2505 29.5713C13.4224 29.3815 13.5513 29.0951 13.6372 28.7119C13.7267 28.3252 13.7894 27.7576 13.8252 27.0093L13.9756 23.1797H19.019ZM25.4482 23.1797H26.8071V31H25.4482V25.4302L22.0161 31H20.6572V23.1797H22.0161V28.7549L25.4482 23.1797ZM34.6436 31H33.29V27.5249H29.7935V31H28.4346V23.1797H29.7935V26.4346H33.29V23.1797H34.6436V31ZM41.2554 24.2754H37.646V31H36.2925V23.1797H41.2554V24.2754ZM44.9668 25.1885H46.2666V31H44.9668V27.1221L42.6895 31H41.3896V25.1885H42.6895V29.0664L44.9668 25.1885ZM47.7812 31V23.1797H50.4614C51.3459 23.1797 52.019 23.3569 52.481 23.7114C52.9429 24.0659 53.1738 24.5941 53.1738 25.2959C53.1738 25.654 53.0771 25.9762 52.8838 26.2627C52.6904 26.5492 52.4076 26.7712 52.0352 26.9287C52.4577 27.0433 52.7835 27.2599 53.0127 27.5786C53.2454 27.8937 53.3618 28.2733 53.3618 28.7173C53.3618 29.4513 53.1255 30.0153 52.6528 30.4092C52.1838 30.8031 51.5106 31 50.6333 31H47.7812ZM49.1401 27.4712V29.915H50.6494C51.0755 29.915 51.4085 29.8094 51.6484 29.5981C51.8883 29.3869 52.0083 29.0933 52.0083 28.7173C52.0083 27.9045 51.5929 27.4891 50.7622 27.4712H49.1401ZM49.1401 26.4722H50.4722C50.8947 26.4722 51.2241 26.3773 51.4604 26.1875C51.7004 25.9941 51.8203 25.722 51.8203 25.3711C51.8203 24.9844 51.7093 24.7051 51.4873 24.5332C51.2689 24.3613 50.9269 24.2754 50.4614 24.2754H49.1401V26.4722Z" fill="#21222D"/>
<path d="M53.8614 0H11.8812C8.61386 0 5.9406 2.57426 5.74258 5.74257C2.47525 5.94059 0 8.61386 0 11.8812V53.8614C0 57.2277 2.77229 60 6.13863 60H48.1188C51.3861 60 54.0594 57.4257 54.2574 54.2574C57.5248 54.0594 60 51.3861 60 48.1188V6.13861C60.099 2.77228 57.3267 0 53.8614 0ZM52.3763 51.8812H12.3762C10.099 51.8812 8.21782 50 8.21782 47.7228V7.72277V6.63366C8.21782 4.35644 10.099 2.47525 12.3762 2.47525H53.4654C55.7426 2.47525 57.6238 4.35644 57.6238 6.63366V47.7228C57.6238 50 55.7426 51.8812 53.4654 51.8812H52.3763ZM12.3762 52.8713H51.8812V53.9604C51.8812 56.0396 50.198 57.6238 48.2178 57.6238H6.23763C4.15842 57.6238 2.57426 55.9406 2.57426 53.9604V11.9802C2.57426 9.90099 4.25743 8.31683 6.23763 8.31683H7.32674V47.8218C7.22773 50.5941 9.50495 52.8713 12.3762 52.8713Z" fill="#21222D"/>
<path d="M18.614 5.24756H11.4853C11.1883 5.24756 10.9902 5.44558 10.9902 5.74261V12.8713C10.9902 13.1684 11.1883 13.3664 11.4853 13.3664C11.7823 13.3664 11.9803 13.1684 11.9803 12.8713V6.23766H18.614C18.911 6.23766 19.109 6.03964 19.109 5.74261C19.109 5.44558 18.911 5.24756 18.614 5.24756Z" fill="#21222D"/>
<path d="M54.4552 48.218V41.0893C54.4552 40.7923 54.2572 40.5942 53.9602 40.5942C53.6632 40.5942 53.4651 40.7923 53.4651 41.0893V47.723H46.8315C46.5344 47.723 46.3364 47.921 46.3364 48.218C46.3364 48.515 46.5344 48.7131 46.8315 48.7131H53.9602C54.2572 48.7131 54.4552 48.515 54.4552 48.218Z" fill="#21222D"/>
</svg>
