<svg width="61" height="60" viewBox="0 0 61 60" fill="none" xmlns="http://www.w3.org/2000/svg">
<path d="M32.3076 22.1243V21.6531C32.3076 21.0962 31.8364 20.625 31.2795 20.625H28.7092C28.1524 20.625 27.6812 21.0962 27.6812 21.6531V22.1243C27.6812 22.6812 28.1524 23.1524 28.7092 23.1524H31.2795C31.8364 23.1524 32.3076 22.724 32.3076 22.1243ZM31.8792 22.1243C31.8792 22.467 31.6222 22.724 31.2795 22.724H28.7092C28.3665 22.724 28.1095 22.467 28.1095 22.1243V21.6531C28.1095 21.3104 28.3665 21.0534 28.7092 21.0534H31.2795C31.6222 21.0534 31.8792 21.3104 31.8792 21.6531V22.1243Z" fill="#222222"/>
<path d="M37.0627 20.625H34.4924C33.9356 20.625 33.4644 21.0962 33.4644 21.6531V22.1243C33.4644 22.6812 33.9356 23.1524 34.4924 23.1524H37.0627C37.6196 23.1524 38.0908 22.6812 38.0908 22.1243V21.6531C38.0908 21.0962 37.6196 20.625 37.0627 20.625ZM37.6624 22.1243C37.6624 22.467 37.4054 22.724 37.0627 22.724H34.4924C34.1498 22.724 33.8927 22.467 33.8927 22.1243V21.6531C33.8927 21.3104 34.1498 21.0534 34.4924 21.0534H37.0627C37.4054 21.0534 37.6624 21.3104 37.6624 21.6531V22.1243Z" fill="#222222"/>
<path d="M38.3476 27.8216C38.3048 27.8216 38.2191 27.7788 38.1763 27.7788C38.776 26.9649 39.2472 26.0225 39.5899 24.9944C39.8041 24.3947 39.9754 23.7521 40.0611 23.1096C40.0611 23.1096 40.0611 23.1096 40.0611 23.0667C40.1896 22.2957 40.2753 21.4818 40.2753 20.7107C40.2753 15.8273 37.5766 13 32.8216 13C28.0239 13 25.368 15.7416 25.368 20.7107C25.368 21.5246 25.4537 22.3385 25.5822 23.1096C25.7107 23.795 25.882 24.3947 26.0962 24.9944C26.4389 26.0225 26.953 26.9649 27.5098 27.7788C27.467 27.7788 27.3813 27.8216 27.3385 27.8216C21.684 29.3209 18 32.9621 18 37.0745C18 40.1159 25.2395 41.401 31.4509 41.5295C31.8792 41.5295 32.3504 41.5295 32.8645 41.5295C33.3785 41.5295 33.8497 41.5295 34.2781 41.5295C40.4895 41.3582 47.729 40.1159 47.729 37.0745C47.6861 32.9621 44.045 29.3209 38.3476 27.8216ZM26.4818 20.7107C26.4818 15.2275 29.9516 14.0709 32.8645 14.0709C35.7774 14.0709 39.2472 15.2275 39.2472 20.7107C39.2472 21.1819 39.2044 21.6531 39.1615 22.1243C38.5618 20.5822 38.2191 18.9972 38.0906 17.4551C38.0906 17.3694 38.0478 17.3266 38.0049 17.2837C37.9621 17.2409 37.8764 17.2409 37.7908 17.2837C35.9916 18.0119 29.5232 18.1405 27.9382 17.2837C27.8954 17.2409 27.8097 17.2409 27.724 17.2837C27.6812 17.3266 27.6384 17.3694 27.5955 17.4551C27.467 19.1685 27.1243 20.7107 26.5246 22.1671C26.5246 21.6959 26.4818 21.2247 26.4818 20.7107ZM34.5351 38.6166L33.6356 33.776L34.0639 33.0906L34.835 34.7613C34.8778 34.8469 34.9635 34.8898 35.0063 34.8898C35.092 34.8898 35.1777 34.8469 35.1777 34.7613L35.5204 34.0759L35.6489 33.776L34.5351 38.6166ZM36.3343 31.7627C36.2915 31.8055 36.2486 31.8483 36.2486 31.8912V31.934L35.2634 33.8617L35.1348 34.1615L33.25 30.1349C34.5351 30.0492 35.7346 29.4923 36.7198 28.5499C37.1054 28.6356 37.4909 28.7212 37.8764 28.8069L36.3343 31.7627ZM31.1938 38.6166L29.9944 33.8188L30.5084 34.8041C30.5513 34.8898 30.637 34.9326 30.6798 34.9326C30.7655 34.9326 30.8511 34.8898 30.8511 34.8041L31.6222 33.1334L32.0506 33.8188L31.1938 38.6166ZM30.6798 34.2044L29.5232 31.9768V31.8912C29.5232 31.8483 29.4804 31.8055 29.4375 31.8055L27.9382 28.8497C28.3237 28.7641 28.7521 28.6784 29.0948 28.5927C30.0801 29.5351 31.2795 30.092 32.5646 30.1777L30.6798 34.2044ZM36.4628 28.1643C36.4628 28.1643 36.42 28.2072 36.4628 28.1643C35.3919 29.1496 34.1924 29.7493 32.8645 29.7493C29.9087 29.7493 27.4242 26.8792 26.6959 22.9811C27.4242 21.3532 27.8525 19.6826 28.0239 17.7978C30.0372 18.5688 35.6917 18.3975 37.6622 17.7549C37.8336 19.4684 38.3048 21.2247 38.9902 22.9811C38.6475 25.1229 37.7051 26.9649 36.4628 28.1643ZM27.467 28.9354L29.0948 32.1054L30.9797 39.6447L31.1938 40.4586C23.6973 40.2444 19.0709 38.5309 19.0709 37.0745C19.1138 33.519 22.3694 30.3062 27.467 28.9354ZM31.665 40.4586L31.4509 39.6019L32.5218 33.776C32.5218 33.7332 32.5218 33.6475 32.4789 33.6047L31.8364 32.6194L32.8645 30.4347L33.8926 32.6194L33.25 33.6047C33.2072 33.6475 33.2072 33.6903 33.2072 33.776L34.2781 39.6019L34.0639 40.4586C33.2929 40.5014 32.4789 40.5014 31.665 40.4586ZM34.5351 40.4586L36.6341 32.1054L38.262 28.9354C43.3596 30.349 46.658 33.519 46.658 37.0745C46.6152 38.5309 42.0316 40.2444 34.5351 40.4586Z" fill="#222222"/>
<path d="M33.8925 25.3371C33.2071 25.637 32.5646 25.637 31.8792 25.3371C31.7507 25.2943 31.665 25.3371 31.5793 25.4228C31.5365 25.5513 31.5793 25.637 31.665 25.7227C32.0505 25.894 32.4789 25.9797 32.8644 25.9797C33.25 25.9797 33.6783 25.894 34.0639 25.7227C34.1924 25.6798 34.2352 25.5513 34.1495 25.4228C34.1067 25.3371 33.9782 25.2943 33.8925 25.3371Z" fill="#222222"/>
<path d="M53.8614 0H11.8812C8.61386 0 5.9406 2.57426 5.74258 5.74257C2.47525 5.94059 0 8.61386 0 11.8812V53.8614C0 57.2277 2.77229 60 6.13863 60H48.1188C51.3861 60 54.0594 57.4257 54.2574 54.2574C57.5248 54.0594 60 51.3861 60 48.1188V6.13861C60.099 2.77228 57.3267 0 53.8614 0ZM52.3763 51.8812H12.3762C10.099 51.8812 8.21782 50 8.21782 47.7228V7.72277V6.63366C8.21782 4.35644 10.099 2.47525 12.3762 2.47525H53.4654C55.7426 2.47525 57.6238 4.35644 57.6238 6.63366V47.7228C57.6238 50 55.7426 51.8812 53.4654 51.8812H52.3763ZM12.3762 52.8713H51.8812V53.9604C51.8812 56.0396 50.198 57.6238 48.2178 57.6238H6.23763C4.15842 57.6238 2.57426 55.9406 2.57426 53.9604V11.9802C2.57426 9.90099 4.25743 8.31683 6.23763 8.31683H7.32674V47.8218C7.22773 50.5941 9.50495 52.8713 12.3762 52.8713Z" fill="#21222D"/>
<path d="M18.614 5.24756H11.4853C11.1883 5.24756 10.9902 5.44558 10.9902 5.74261V12.8713C10.9902 13.1684 11.1883 13.3664 11.4853 13.3664C11.7823 13.3664 11.9803 13.1684 11.9803 12.8713V6.23766H18.614C18.911 6.23766 19.109 6.03964 19.109 5.74261C19.109 5.44558 18.911 5.24756 18.614 5.24756Z" fill="#21222D"/>
<path d="M54.4552 48.218V41.0893C54.4552 40.7923 54.2572 40.5942 53.9602 40.5942C53.6632 40.5942 53.4651 40.7923 53.4651 41.0893V47.723H46.8315C46.5344 47.723 46.3364 47.921 46.3364 48.218C46.3364 48.515 46.5344 48.7131 46.8315 48.7131H53.9602C54.2572 48.7131 54.4552 48.515 54.4552 48.218Z" fill="#21222D"/>
</svg>
