<svg width="16" height="16" viewBox="0 0 16 16" fill="none" xmlns="http://www.w3.org/2000/svg">
<path d="M7.99968 0C3.58876 0 0 3.5888 0 8C0 12.4112 3.58876 16 7.99968 16C12.4109 16 16 12.4112 16 8C16 3.5888 12.4109 0 7.99968 0ZM7.99968 14.9508C4.1672 14.9508 1.0492 11.8326 1.0492 8C1.0492 4.16732 4.16716 1.04924 7.99968 1.04924C11.8326 1.04924 14.9507 4.16736 14.9507 8C14.9508 11.8326 11.8326 14.9508 7.99968 14.9508Z" fill="#6C899E"/>
<path d="M7.85187 5.03876C8.23811 5.03876 8.55139 4.72548 8.55139 4.3392C8.55139 3.95293 8.23811 3.63965 7.85187 3.63965C7.46531 3.63965 7.15234 3.95293 7.15234 4.3392C7.15234 4.72548 7.46531 5.03876 7.85187 5.03876Z" fill="#6C899E"/>
<path d="M8.96377 11.1834H8.52501V6.18254C8.52501 5.89282 8.29017 5.6579 8.00049 5.6579H7.03673C6.74705 5.6579 6.51221 5.89282 6.51221 6.18254C6.51221 6.47226 6.74705 6.70714 7.03673 6.70714H7.47581V11.1834H7.03673C6.74705 11.1834 6.51221 11.4183 6.51221 11.708C6.51221 11.9977 6.74705 12.2326 7.03673 12.2326H8.96377C9.25361 12.2326 9.48845 11.9977 9.48845 11.708C9.48845 11.4183 9.25361 11.1834 8.96377 11.1834Z" fill="#6C899E"/>
</svg>
