<svg width="52" height="61" viewBox="0 0 52 61" fill="none" xmlns="http://www.w3.org/2000/svg">
<path d="M49.0309 9.39044H42.0405V1.97694C42.0405 1.38385 41.7452 0.790774 41.2529 0.395387C40.8591 0.0988468 40.4652 0 39.973 0C39.7761 0 39.6776 0 39.4807 0.0988468L1.57529 9.39044C0.689189 9.58814 0 10.3789 0 11.3674V13.3443V14.827V23.4267V31.9275V53.8715V55.3542V58.1219C0 58.715 0.295367 59.3081 0.787645 59.7035C1.18147 60 1.57529 60.0988 2.06757 60.0988H2.16602H49.1293C50.2124 60.0988 51.0985 59.2092 51.0985 58.1219V11.3674C51 10.2801 50.1139 9.39044 49.0309 9.39044ZM2.46139 11.7628L39.4807 2.66886V49.1269L2.46139 57.43V55.2554V53.7727V32.224L31.3089 25.1071C31.5058 25.0082 31.7027 24.8105 31.7027 24.6128V16.112C31.7027 15.9143 31.6042 15.8155 31.5058 15.7166C31.4073 15.6178 31.2104 15.6178 31.112 15.6178L2.55985 22.6359V14.827V13.3443V11.7628H2.46139ZM2.46139 23.8221L30.7181 16.9028V24.3163L2.46139 31.2356V23.8221ZM40.0714 49.9176C40.2683 49.8188 40.4652 49.6211 40.4652 49.4234V13.8385H45.6834V14.827V53.3773H25.0077L40.0714 49.9176ZM20.6757 54.3657H45.7818V54.86H18.6081L20.6757 54.3657ZM14.1776 55.7496H46.1757C46.471 55.7496 46.6679 55.5519 46.6679 55.2554V53.7727V14.827V13.3443C46.6679 13.0478 46.471 12.8501 46.1757 12.8501H40.4652V11.8616H48.4402V57.6277H6.39961L14.1776 55.7496Z" fill="#21222D"/>
</svg>
